#!OML:ASF X:\2005_08_12_Meinard\c3d\meinard.ASF
:FULLY-SPECIFIED
:DEGREES
164
root 4.52168 16.9624 -1.0405 50.1845 -85.2082 -66.7737
lowerback 28.5101 -1.32827 1.15727
upperback 3.85225 -1.52912 1.75838
thorax -11.4439 -0.873748 1.93734
lowerneck -8.62822 -7.8327 -7.92356
upperneck 1.49561 -9.97894 7.64357
head 2.61445 -4.81984 3.03641
rclavicle -2.76746e-015 -1.4238e-014
rhumerus -34.0265 -25.8592 -59.1343
rradius 19.8144
rwrist 39.759
rhand -11.2987 6.54676
rfingers 7.12502
rthumb 14.7327 -22.9097
lclavicle -2.76746e-015 -1.4238e-014
lhumerus -30.0519 -17.6788 87.0705
lradius 80.9074
lwrist 13.6102
lhand -10.7892 -8.309
lfingers 7.12502
lthumb 15.2235 21.1109
rfemur 15.4197 -8.64442 18.9314
rtibia 20.893
rfoot -18.4798 -1.32277
rtoes -13.2232
lfemur 7.97118 -10.2275 -5.30606
ltibia 27.9516
lfoot -17.1568 14.1829
ltoes -28.0512
165
root 4.52721 16.9635 -1.07738 46.3424 -85.0565 -62.9222
lowerback 28.5873 -1.32931 1.15705
upperback 3.85776 -1.53225 1.72394
thorax -11.4782 -0.875296 1.90184
lowerneck -8.58083 -7.98641 -7.99717
upperneck 1.39281 -10.185 7.80045
head 2.60421 -4.9203 3.0835
rclavicle 1.0435e-014 -1.57785e-014
rhumerus -33.1387 -26.0489 -59.0234
rradius 19.6773
rwrist 39.9606
rhand -11.4473 6.60538
rfingers 7.12502
rthumb 14.5896 -22.8615
lclavicle 1.0435e-014 -1.57785e-014
lhumerus -28.6647 -19.2004 87.1505
lradius 82.551
lwrist 14.5913
lhand -10.7758 -8.13125
lfingers 7.12502
lthumb 15.2365 21.2876
rfemur 15.4603 -8.76657 19.0507
rtibia 20.8673
rfoot -18.5487 -1.59691
rtoes -13.174
lfemur 7.63466 -9.70967 -5.11317
ltibia 28.1642
lfoot -16.9991 14.3471
ltoes -27.5264
166
root 4.53156 16.9656 -1.11166 42.44 -84.9103 -58.9831
lowerback 28.6254 -1.32663 1.12499
upperback 3.85942 -1.54148 1.67838
thorax -11.4962 -0.87822 1.87298
lowerneck -8.508 -8.13895 -8.18262
upperneck 1.27946 -10.3835 8.04247
head 2.59732 -5.01606 3.17455
rclavicle -1.80564e-014 1.24489e-014
rhumerus -32.2232 -26.2932 -58.8581
rradius 19.5155
rwrist 40.1537
rhand -11.6282 6.66599
rfingers 7.12502
rthumb 14.4152 -22.8134
lclavicle -1.80564e-014 1.24489e-014
lhumerus -27.1958 -20.6706 87.1817
lradius 84.1224
lwrist 15.5257
lhand -10.7616 -7.94189
lfingers 7.12502
lthumb 15.2501 21.476
rfemur 15.4859 -8.87043 19.132
rtibia 20.8202
rfoot -18.6239 -1.89644
rtoes -13.1045
lfemur 7.25683 -9.10337 -4.97445
ltibia 28.4313
lfoot -16.8591 14.4119
ltoes -27.1615
167
root 4.5364 16.9684 -1.1447 39.1435 -84.7464 -55.6773
lowerback 28.7166 -1.31885 1.10407
upperback 3.85235 -1.53941 1.63502
thorax -11.5521 -0.876135 1.8381
lowerneck -8.4384 -8.29219 -8.3855
upperneck 1.19791 -10.5822 8.28187
head 2.60215 -5.11175 3.26648
rclavicle -1.67057e-014 1.63003e-014
rhumerus -31.258 -26.2979 -58.7644
rradius 19.3923
rwrist 40.0669
rhand -11.7223 6.6196
rfingers 7.12502
rthumb 14.3246 -22.8662
lclavicle -1.67057e-014 1.63003e-014
lhumerus -25.713 -22.0807 87.1477
lradius 85.6642
lwrist 16.4209
lhand -10.7336 -7.84597
lfingers 7.12502
lthumb 15.2771 21.5698
rfemur 15.5398 -8.95503 19.2243
rtibia 20.7557
rfoot -18.656 -2.16009
rtoes -12.838
lfemur 6.88988 -8.43485 -4.83903
ltibia 28.7543
lfoot -16.7396 14.3437
ltoes -27.1015
168
root 4.5419 16.9706 -1.17497 36.1603 -84.5682 -52.669
lowerback 28.8 -1.31446 1.08968
upperback 3.84764 -1.53953 1.59735
thorax -11.6012 -0.875367 1.80637
lowerneck -8.36706 -8.44175 -8.59475
upperneck 1.09248 -10.7756 8.53769
head 2.60137 -5.20484 3.36503
rclavicle 3.38555e-015 -1.98785e-016
rhumerus -30.2296 -26.3585 -58.6348
rradius 19.2648
rwrist 39.8672
rhand -11.839 6.55936
rfingers 7.12502
rthumb 14.2121 -22.9344
lclavicle 3.38555e-015 -1.98785e-016
lhumerus -24.1786 -23.4462 87.0497
lradius 87.1878
lwrist 17.266
lhand -10.703 -7.82203
lfingers 7.12502
lthumb 15.3066 21.5915
rfemur 15.5767 -9.01316 19.3293
rtibia 20.6895
rfoot -18.7171 -2.46732
rtoes -12.7585
lfemur 6.49853 -7.69638 -4.70997
ltibia 29.1205
lfoot -16.6809 14.0983
ltoes -26.8384
169
root 4.54772 16.972 -1.20241 33.4945 -84.4061 -49.9717
lowerback 28.8799 -1.28933 1.08686
upperback 3.83949 -1.51082 1.54376
thorax -11.6538 -0.862026 1.73875
lowerneck -8.30026 -8.5964 -8.73262
upperneck 0.984998 -10.9795 8.73205
head 2.59488 -5.30448 3.43338
rclavicle 3.37313e-015 2.03754e-014
rhumerus -29.2246 -26.5457 -58.4157
rradius 19.1206
rwrist 39.7505
rhand -11.9379 6.47482
rfingers 7.12502
rthumb 14.1168 -23.0256
lclavicle 3.37313e-015 2.03754e-014
lhumerus -22.6056 -24.8356 86.9056
lradius 88.6911
lwrist 18.0924
lhand -10.6462 -7.76577
lfingers 7.12502
lthumb 15.3613 21.6436
rfemur 15.6037 -9.04308 19.4152
rtibia 20.6246
rfoot -18.7475 -2.74826
rtoes -12.6068
lfemur 6.11116 -6.99667 -4.64975
ltibia 29.5227
lfoot -16.6995 13.7062
ltoes -26.4281
170
root 4.55406 16.9748 -1.22714 31.1447 -84.2618 -47.6024
lowerback 28.9759 -1.26823 1.05822
upperback 3.84142 -1.49534 1.49985
thorax -11.7017 -0.854006 1.70234
lowerneck -8.21986 -8.71958 -8.86239
upperneck 0.856522 -11.1428 8.93476
head 2.57727 -5.38434 3.50696
rclavicle 9.99204e-015 -3.19049e-014
rhumerus -28.1152 -26.708 -58.2023
rradius 18.9508
rwrist 39.5906
rhand -12.0499 6.38719
rfingers 7.12502
rthumb 14.0089 -23.1208
lclavicle 9.99204e-015 -3.19049e-014
lhumerus -20.9551 -26.0569 86.7062
lradius 90.126
lwrist 18.8334
lhand -10.4854 -7.79805
lfingers 7.12502
lthumb 15.5162 21.5994
rfemur 15.6315 -9.01927 19.497
rtibia 20.5708
rfoot -18.8092 -3.05664
rtoes -12.5233
lfemur 5.74544 -6.27344 -4.63369
ltibia 29.9553
lfoot -16.7727 13.1721
ltoes -25.9898
171
root 4.56039 16.9768 -1.24951 29.0877 -84.115 -45.5197
lowerback 29.0887 -1.24496 1.01238
upperback 3.82658 -1.47982 1.46643
thorax -11.7771 -0.844344 1.68879
lowerneck -8.16667 -8.82335 -8.90004
upperneck 0.763107 -11.2841 9.04969
head 2.56245 -5.45427 3.54026
rclavicle 7.0817e-016 -1.59028e-014
rhumerus -26.9677 -26.7218 -58.0188
rradius 18.8056
rwrist 39.1654
rhand -12.1154 6.20459
rfingers 7.12502
rthumb 13.9458 -23.3077
lclavicle 7.0817e-016 -1.59028e-014
lhumerus -19.2299 -27.1847 86.4726
lradius 91.4735
lwrist 19.4771
lhand -10.2761 -7.88929
lfingers 7.12502
lthumb 15.7178 21.4924
rfemur 15.6469 -8.97711 19.5861
rtibia 20.5282
rfoot -18.85 -3.36663
rtoes -12.3081
lfemur 5.38577 -5.57029 -4.64055
ltibia 30.4055
lfoot -16.8997 12.464
ltoes -25.3443
172
root 4.56658 16.9787 -1.26953 27.0268 -83.9817 -43.4372
lowerback 29.1966 -1.2249 0.901458
upperback 3.82487 -1.48855 1.44819
thorax -11.8322 -0.843126 1.73899
lowerneck -8.10221 -8.89044 -8.88046
upperneck 0.626898 -11.3779 9.11087
head 2.52241 -5.50252 3.55412
rclavicle -1.13245e-014 8.10048e-015
rhumerus -25.7002 -26.6474 -57.8528
rradius 18.6241
rwrist 38.7103
rhand -12.1663 6.01671
rfingers 7.12502
rthumb 13.8967 -23.499
lclavicle -1.13245e-014 8.10048e-015
lhumerus -17.4385 -28.1707 86.2083
lradius 92.7655
lwrist 20.0566
lhand -10.0605 -8.03216
lfingers 7.12502
lthumb 15.9254 21.3331
rfemur 15.6523 -8.88387 19.6614
rtibia 20.4968
rfoot -18.9044 -3.69126
rtoes -12.2102
lfemur 5.04531 -4.84853 -4.70225
ltibia 30.8713
lfoot -17.0638 11.6387
ltoes -24.7252
173
root 4.57131 16.9814 -1.28712 25.2291 -83.8373 -41.6326
lowerback 29.3064 -1.21514 0.821749
upperback 3.83013 -1.50213 1.42743
thorax -11.8809 -0.845905 1.77002
lowerneck -8.02043 -8.94758 -8.8445
upperneck 0.471292 -11.4597 9.16316
head 2.47135 -5.54574 3.56506
rclavicle 8.57259e-016 -2.64384e-014
rhumerus -24.3692 -26.4658 -57.6971
rradius 18.3843
rwrist 38.1955
rhand -12.2473 5.82515
rfingers 7.12502
rthumb 13.8187 -23.6959
lclavicle 8.57259e-016 -2.64384e-014
lhumerus -15.5814 -29.0942 85.8716
lradius 93.987
lwrist 20.6107
lhand -9.8027 -8.20642
lfingers 7.12502
lthumb 16.1736 21.1388
rfemur 15.6811 -8.80433 19.7405
rtibia 20.4668
rfoot -18.9513 -4.0273
rtoes -12.1573
lfemur 4.72456 -4.15819 -4.78991
ltibia 31.3607
lfoot -17.2144 10.6996
ltoes -24.1137
174
root 4.57584 16.9834 -1.30224 23.4311 -83.6952 -39.8122
lowerback 29.4167 -1.20043 0.726884
upperback 3.8131 -1.51184 1.41105
thorax -11.9553 -0.845059 1.81396
lowerneck -7.89084 -9.00093 -8.77547
upperneck 0.311639 -11.5402 9.16882
head 2.40647 -5.59045 3.55961
rclavicle -8.08805e-015 9.54166e-015
rhumerus -23.0585 -26.3871 -57.4567
rradius 18.1139
rwrist 37.7742
rhand -12.3079 5.63937
rfingers 7.12502
rthumb 13.7602 -23.8856
lclavicle -8.08805e-015 9.54166e-015
lhumerus -13.7115 -29.9766 85.516
lradius 95.0905
lwrist 21.0803
lhand -9.60593 -8.52058
lfingers 7.12502
lthumb 16.3631 20.8092
rfemur 15.6794 -8.62678 19.8428
rtibia 20.4562
rfoot -19.0297 -4.43281
rtoes -12.1213
lfemur 4.39203 -3.47205 -4.92373
ltibia 31.8767
lfoot -17.4146 9.59131
ltoes -23.6182
